HIERARCHY
ROOT Hips
{
	OFFSET 0.000000 100.481300 0.000000
	CHANNELS 6 Xposition Yposition Zposition Xrotation Yrotation Zrotation
	JOINT Spine
	{
		OFFSET -0.279200 12.230698 -2.892100
		CHANNELS 3 Xrotation Yrotation Zrotation
		JOINT Spine1
		{
			OFFSET -0.325700 14.269203 -3.374200
			CHANNELS 3 Xrotation Yrotation Zrotation
			JOINT Spine2
			{
				OFFSET -0.372300 16.307602 -0.352600
				CHANNELS 3 Xrotation Yrotation Zrotation
				JOINT Neck
				{
					OFFSET -0.418800 17.814194 8.416900
					CHANNELS 3 Xrotation Yrotation Zrotation
					JOINT Head
					{
						OFFSET 0.000000 7.031097 3.806800
						CHANNELS 3 Xrotation Yrotation Zrotation
						JOINT HeadTop_End
						{
							OFFSET 0.000000 24.646606 12.978600
							CHANNELS 3 Xrotation Yrotation Zrotation
							End Site
							{
								OFFSET 0.000000 27.854965 0.000000
							}
						}
					}
				}
				JOINT LeftShoulder
				{
					OFFSET 16.952999 14.495407 -7.737500
					CHANNELS 3 Xrotation Yrotation Zrotation
					JOINT LeftArm
					{
						OFFSET 9.308998 -2.777710 0.208600
						CHANNELS 3 Xrotation Yrotation Zrotation
						JOINT LeftForeArm
						{
							OFFSET 29.972298 0.000000 0.000000
							CHANNELS 3 Xrotation Yrotation Zrotation
							JOINT LeftHand
							{
								OFFSET 26.026505 0.000000 0.000000
								CHANNELS 3 Xrotation Yrotation Zrotation
								JOINT LeftHandThumb1
								{
									OFFSET 12.240501 -7.147949 9.207150
									CHANNELS 3 Xrotation Yrotation Zrotation
									JOINT LeftHandThumb2
									{
										OFFSET 4.138618 -2.389435 2.389433
										CHANNELS 3 Xrotation Yrotation Zrotation
										JOINT LeftHandThumb3
										{
											OFFSET 2.726913 -1.574387 1.574386
											CHANNELS 3 Xrotation Yrotation Zrotation
											JOINT LeftHandThumb4
											{
												OFFSET 3.941010 -2.275345 2.275342
												CHANNELS 3 Xrotation Yrotation Zrotation
												End Site
												{
													OFFSET -0.005798 5.087799 0.009903
												}
											}
										}
									}
								}
								JOINT LeftHandIndex1
								{
									OFFSET 24.424698 -1.985611 5.953459
									CHANNELS 3 Xrotation Yrotation Zrotation
									JOINT LeftHandIndex2
									{
										OFFSET 6.426697 0.000000 0.000000
										CHANNELS 3 Xrotation Yrotation Zrotation
										JOINT LeftHandIndex3
										{
											OFFSET 5.337898 0.000000 0.000000
											CHANNELS 3 Xrotation Yrotation Zrotation
											JOINT LeftHandIndex4
											{
												OFFSET 4.409401 0.000000 0.000000
												CHANNELS 3 Xrotation Yrotation Zrotation
												End Site
												{
													OFFSET 0.000000 4.409363 0.014373
												}
											}
										}
									}
								}
								JOINT LeftHandMiddle1
								{
									OFFSET 23.810104 0.000000 0.000000
									CHANNELS 3 Xrotation Yrotation Zrotation
									JOINT LeftHandMiddle2
									{
										OFFSET 7.176498 0.000000 0.000000
										CHANNELS 3 Xrotation Yrotation Zrotation
										JOINT LeftHandMiddle3
										{
											OFFSET 6.774902 0.000000 0.000000
											CHANNELS 3 Xrotation Yrotation Zrotation
											JOINT LeftHandMiddle4
											{
												OFFSET 5.403328 0.000000 0.000000
												CHANNELS 3 Xrotation Yrotation Zrotation
												End Site
												{
													OFFSET -0.027702 5.403244 0.017414
												}
											}
										}
									}
								}
								JOINT LeftHandRing1
								{
									OFFSET 22.908401 -0.839279 -6.020567
									CHANNELS 3 Xrotation Yrotation Zrotation
									JOINT LeftHandRing2
									{
										OFFSET 6.337502 0.000000 0.000000
										CHANNELS 3 Xrotation Yrotation Zrotation
										JOINT LeftHandRing3
										{
											OFFSET 5.779297 0.000000 0.000000
											CHANNELS 3 Xrotation Yrotation Zrotation
											JOINT LeftHandRing4
											{
												OFFSET 4.965698 0.000000 0.000000
												CHANNELS 3 Xrotation Yrotation Zrotation
												End Site
												{
													OFFSET 0.000000 4.965668 0.016186
												}
											}
										}
									}
								}
								JOINT LeftHandPinky1
								{
									OFFSET 20.037003 -1.530319 -10.950146
									CHANNELS 3 Xrotation Yrotation Zrotation
									JOINT LeftHandPinky2
									{
										OFFSET 5.254700 0.000000 0.000000
										CHANNELS 3 Xrotation Yrotation Zrotation
										JOINT LeftHandPinky3
										{
											OFFSET 4.810204 0.000000 0.000000
											CHANNELS 3 Xrotation Yrotation Zrotation
											JOINT LeftHandPinky4
											{
												OFFSET 3.647202 0.000000 0.000000
												CHANNELS 3 Xrotation Yrotation Zrotation
												End Site
												{
													OFFSET 0.000000 3.647186 0.011889
												}
											}
										}
									}
								}
							}
						}
					}
				}
				JOINT RightShoulder
				{
					OFFSET -15.141001 14.495407 -7.737500
					CHANNELS 3 Xrotation Yrotation Zrotation
					JOINT RightArm
					{
						OFFSET -9.308998 -2.777710 0.208500
						CHANNELS 3 Xrotation Yrotation Zrotation
						JOINT RightForeArm
						{
							OFFSET -29.972300 0.000000 0.000000
							CHANNELS 3 Xrotation Yrotation Zrotation
							JOINT RightHand
							{
								OFFSET -26.026505 0.000000 0.000000
								CHANNELS 3 Xrotation Yrotation Zrotation
								JOINT RightHandThumb1
								{
									OFFSET -12.240601 -7.148026 9.207092
									CHANNELS 3 Xrotation Yrotation Zrotation
									JOINT RightHandThumb2
									{
										OFFSET -4.138618 -2.389435 2.389433
										CHANNELS 3 Xrotation Yrotation Zrotation
										JOINT RightHandThumb3
										{
											OFFSET -2.726974 -1.574417 1.574421
											CHANNELS 3 Xrotation Yrotation Zrotation
											JOINT RightHandThumb4
											{
												OFFSET -3.941010 -2.275345 2.275343
												CHANNELS 3 Xrotation Yrotation Zrotation
												End Site
												{
													OFFSET 0.005814 5.087799 0.009927
												}
											}
										}
									}
								}
								JOINT RightHandIndex1
								{
									OFFSET -24.424698 -1.985657 5.953444
									CHANNELS 3 Xrotation Yrotation Zrotation
									JOINT RightHandIndex2
									{
										OFFSET -6.426697 0.000000 0.000000
										CHANNELS 3 Xrotation Yrotation Zrotation
										JOINT RightHandIndex3
										{
											OFFSET -5.337898 0.000000 0.000000
											CHANNELS 3 Xrotation Yrotation Zrotation
											JOINT RightHandIndex4
											{
												OFFSET -4.409401 0.000000 0.000000
												CHANNELS 3 Xrotation Yrotation Zrotation
												End Site
												{
													OFFSET 0.000000 4.409363 0.014408
												}
											}
										}
									}
								}
								JOINT RightHandMiddle1
								{
									OFFSET -23.810097 0.000000 0.000000
									CHANNELS 3 Xrotation Yrotation Zrotation
									JOINT RightHandMiddle2
									{
										OFFSET -7.176498 0.000000 0.000000
										CHANNELS 3 Xrotation Yrotation Zrotation
										JOINT RightHandMiddle3
										{
											OFFSET -6.774902 0.000000 0.000000
											CHANNELS 3 Xrotation Yrotation Zrotation
											JOINT RightHandMiddle4
											{
												OFFSET -5.403328 0.000000 0.000000
												CHANNELS 3 Xrotation Yrotation Zrotation
												End Site
												{
													OFFSET 0.027702 5.403244 0.017457
												}
											}
										}
									}
								}
								JOINT RightHandRing1
								{
									OFFSET -22.908302 -0.839325 -6.020576
									CHANNELS 3 Xrotation Yrotation Zrotation
									JOINT RightHandRing2
									{
										OFFSET -6.337502 0.000000 0.000000
										CHANNELS 3 Xrotation Yrotation Zrotation
										JOINT RightHandRing3
										{
											OFFSET -5.779297 0.000000 0.000000
											CHANNELS 3 Xrotation Yrotation Zrotation
											JOINT RightHandRing4
											{
												OFFSET -4.965698 0.000000 0.000000
												CHANNELS 3 Xrotation Yrotation Zrotation
												End Site
												{
													OFFSET 0.000000 4.965668 0.016226
												}
											}
										}
									}
								}
								JOINT RightHandPinky1
								{
									OFFSET -20.037003 -1.530334 -10.950259
									CHANNELS 3 Xrotation Yrotation Zrotation
									JOINT RightHandPinky2
									{
										OFFSET -5.254700 0.000000 0.000000
										CHANNELS 3 Xrotation Yrotation Zrotation
										JOINT RightHandPinky3
										{
											OFFSET -4.810204 0.000000 0.000000
											CHANNELS 3 Xrotation Yrotation Zrotation
											JOINT RightHandPinky4
											{
												OFFSET -3.647202 0.000000 0.000000
												CHANNELS 3 Xrotation Yrotation Zrotation
												End Site
												{
													OFFSET 0.000000 3.647186 0.011917
												}
											}
										}
									}
								}
							}
						}
					}
				}
			}
		}
	}
	JOINT LeftUpLeg
	{
		OFFSET 15.427100 -6.655098 0.678600
		CHANNELS 3 Xrotation Yrotation Zrotation
		JOINT LeftLeg
		{
			OFFSET 4.081073 -39.591068 13.024000
			CHANNELS 3 Xrotation Yrotation Zrotation
			JOINT LeftFoot
			{
				OFFSET -4.081074 -37.707932 -15.979700
				CHANNELS 3 Xrotation Yrotation Zrotation
				JOINT LeftToeBase
				{
					OFFSET 5.346399 -15.068900 20.645000
					CHANNELS 3 Xrotation Yrotation Zrotation
					JOINT LeftToe_End
					{
						OFFSET 2.754700 0.931300 11.300900
						CHANNELS 3 Xrotation Yrotation Zrotation
						End Site
						{
							OFFSET 0.000000 11.669021 0.000000
						}
					}
				}
			}
		}
	}
	JOINT RightUpLeg
	{
		OFFSET -15.569500 -6.655098 0.678600
		CHANNELS 3 Xrotation Yrotation Zrotation
		JOINT RightLeg
		{
			OFFSET -4.081825 -39.591045 13.023800
			CHANNELS 3 Xrotation Yrotation Zrotation
			JOINT RightFoot
			{
				OFFSET 4.081824 -37.707954 -15.979600
				CHANNELS 3 Xrotation Yrotation Zrotation
				JOINT RightToeBase
				{
					OFFSET -5.346400 -15.068900 20.645000
					CHANNELS 3 Xrotation Yrotation Zrotation
					JOINT RightToe_End
					{
						OFFSET -2.754700 0.931300 11.300900
						CHANNELS 3 Xrotation Yrotation Zrotation
						End Site
						{
							OFFSET 0.000000 11.669021 0.000000
						}
					}
				}
			}
		}
	}
}
MOTION
Frames: 4
Frame Time: 0.033333
0.248946 93.863647 -1.804614 -7.142463 -0.260691 4.213038 5.333602 2.176718 -2.781758 1.481578 0.754857 -0.644031 1.485443 0.766123 -0.615274 2.306217 5.388005 1.629684 3.249872 -10.648655 2.518662 0.000000 -0.000000 0.000000 0.156798 -12.684408 -17.418796 5.694782 -1.491566 -42.114755 0.001105 -86.470400 0.001094 -124.541902 -2.341908 13.474521 -12.800139 -17.470111 4.121637 1.012371 0.758806 -1.430650 -7.340032 -0.433357 13.194486 -0.000002 -0.000000 0.000001 -3.532546 4.254365 -63.954572 3.402078 5.315513 -65.218942 1.034634 3.326123 -34.549846 -0.000001 0.000001 -0.000002 2.434396 7.296057 -69.364089 3.297859 5.266359 -64.088642 0.787104 2.934914 -30.019569 0.000001 -0.000000 0.000001 4.717035 8.075517 -77.582275 2.056288 4.456879 -49.517659 1.539985 3.959694 -42.490624 -0.000001 -0.000001 0.000005 6.410324 8.363717 -80.414563 1.722711 4.149901 -45.074375 0.636278 2.657139 -26.928226 -0.000000 -0.000000 0.000000 0.747235 18.499152 11.537603 10.685422 23.558716 38.376282 0.000056 97.832392 -0.000069 -34.547971 -20.181134 22.178714 20.470526 7.475579 18.843589 4.151745 -12.160908 -33.847986 -6.270003 -41.955875 -36.496105 -0.000002 -0.000001 0.000001 -0.887102 1.427987 12.684530 1.917409 -3.767447 53.934322 3.057992 -4.374570 69.896796 0.000002 0.000000 -0.000003 0.770875 -5.199591 54.618813 5.563884 -4.568250 101.238587 4.771464 -4.655766 91.407889 0.000000 -0.000000 -0.000000 6.934449 -8.544280 63.908741 2.909309 -4.317399 67.934728 1.862835 -3.727209 53.099448 0.000000 -0.000001 -0.000001 8.373393 -8.171762 73.989923 2.173674 -3.940974 57.745384 1.041999 -2.937891 39.049872 0.000000 -0.000001 -0.000001 -10.176521 11.421762 6.698355 14.089679 6.676959 0.779057 4.795189 0.913137 -7.408890 -0.000025 0.000005 -0.000002 0.000000 -0.000000 0.000000 6.498861 -15.284293 -8.136258 19.849517 -7.977611 -2.399261 -18.607040 -7.212206 8.957685 -2.358745 -0.000002 0.000001 0.000000 0.000002 -0.000000 
0.617210 93.483978 -1.686367 -7.113446 0.532844 4.378713 5.326197 2.178951 -2.743994 1.481578 0.808416 -0.661267 1.485443 0.817978 -0.631553 2.306217 5.321887 1.629684 3.147678 -11.111344 2.609966 0.000000 -0.000000 -0.000000 0.112705 -13.187267 -17.796613 5.469907 -1.459221 -41.537628 0.000889 -86.426113 0.000880 -124.548909 -2.187960 13.785591 -12.800139 -17.470111 4.121637 1.012370 0.758806 -1.430650 -7.340034 -0.433356 13.194486 -0.000001 0.000001 -0.000002 -3.532545 4.254366 -63.954572 3.402077 5.315514 -65.218942 1.034635 3.326123 -34.549843 0.000000 -0.000000 0.000001 2.434396 7.296055 -69.364089 3.297858 5.266361 -64.088642 0.787105 2.934915 -30.019566 0.000000 0.000001 -0.000000 4.717035 8.075517 -77.582275 2.056287 4.456878 -49.517659 1.539981 3.959693 -42.490627 -0.000001 -0.000000 -0.000001 6.410323 8.363717 -80.414570 1.722712 4.149901 -45.074382 0.636278 2.657138 -26.928231 -0.000001 0.000001 -0.000002 0.686045 17.978016 11.758569 10.733877 23.502575 38.356929 0.000162 97.868114 -0.000151 -34.563018 -20.174772 22.117575 20.470524 7.475581 18.843590 4.151745 -12.160910 -33.847986 -6.270010 -41.955868 -36.496105 0.000002 -0.000003 0.000003 -0.887100 1.427985 12.684532 1.917409 -3.767446 53.934326 3.057990 -4.374569 69.896796 -0.000002 0.000000 -0.000001 0.770876 -5.199588 54.618820 5.563883 -4.568254 101.238587 4.771461 -4.655769 91.407882 0.000000 -0.000000 -0.000001 6.934449 -8.544279 63.908741 2.909309 -4.317398 67.934728 1.862835 -3.727209 53.099444 -0.000000 0.000001 -0.000000 8.373394 -8.171764 73.989923 2.173667 -3.940977 57.745390 1.042001 -2.937891 39.049872 0.000000 -0.000002 -0.000001 -11.064707 11.524001 5.943024 15.148096 4.057169 0.661016 4.402856 2.828733 -6.647939 -0.007691 -0.000007 -0.000001 0.000000 -0.000000 -0.000000 6.392055 -14.335283 -8.139042 20.643144 -6.338449 -1.933368 -19.098990 -10.361893 7.967440 -2.407272 0.000002 0.000002 -0.000000 0.000001 -0.000000 
1.014225 93.000755 -1.460206 -7.155740 1.404499 4.470425 5.312639 2.208574 -2.676541 1.481577 0.974494 -0.692514 1.485442 0.976414 -0.681295 2.306216 5.258969 1.629684 3.020854 -11.158719 2.842441 -0.000001 -0.000000 0.000000 0.063795 -13.651480 -18.241671 5.200644 -1.575383 -40.979585 0.000590 -86.258193 0.000587 -124.535727 -1.968787 14.089949 -12.800142 -17.470113 4.121634 1.012369 0.758805 -1.430648 -7.340032 -0.433355 13.194489 -0.000001 -0.000000 0.000001 -3.532545 4.254366 -63.954572 3.402075 5.315514 -65.218942 1.034636 3.326123 -34.549843 0.000000 -0.000000 -0.000002 2.434397 7.296055 -69.364089 3.297858 5.266361 -64.088635 0.787105 2.934914 -30.019566 -0.000001 0.000001 -0.000002 4.717035 8.075515 -77.582275 2.056286 4.456880 -49.517659 1.539987 3.959694 -42.490627 -0.000001 0.000000 -0.000002 6.410324 8.363714 -80.414563 1.722713 4.149903 -45.074375 0.636275 2.657138 -26.928229 0.000001 -0.000000 0.000002 0.580544 17.427788 11.990077 10.873940 23.346261 38.302075 -0.000074 97.969317 0.000033 -34.573830 -20.217164 22.034605 20.470524 7.475581 18.843592 4.151746 -12.160914 -33.847986 -6.270007 -41.955878 -36.496112 0.000003 -0.000001 -0.000001 -0.887100 1.427985 12.684534 1.917410 -3.767445 53.934326 3.057990 -4.374569 69.896796 0.000000 -0.000001 0.000002 0.770875 -5.199588 54.618820 5.563881 -4.568254 101.238587 4.771465 -4.655768 91.407889 -0.000000 -0.000000 -0.000001 6.934449 -8.544280 63.908741 2.909305 -4.317398 67.934728 1.862830 -3.727209 53.099441 0.000000 0.000002 0.000000 8.373394 -8.171761 73.989923 2.173665 -3.940977 57.745390 1.042003 -2.937891 39.049872 0.000000 -0.000000 -0.000000 -11.855100 11.560419 5.931344 16.670900 4.347415 0.363670 3.545940 1.625538 -6.154578 -0.006737 -0.000005 0.000000 -0.000000 0.000000 0.000000 6.151599 -14.950268 -8.245687 21.624615 -4.571564 -1.849149 -19.806142 -12.206943 7.391388 -2.528618 -0.000019 -0.000002 0.000000 0.000000 -0.000000 
1.454355 92.485916 -1.124374 -7.272077 2.264726 4.592574 5.308077 2.321851 -2.604298 1.481576 1.233720 -0.732317 1.485440 1.225705 -0.759579 2.306216 5.194305 1.638547 2.889370 -10.813324 3.113001 -0.000000 0.000000 0.000000 0.015449 -14.079302 -18.653112 5.031935 -1.658163 -40.581846 0.000157 -86.058280 0.000127 -124.515441 -1.739379 14.308132 -12.800140 -17.470113 4.121635 1.012371 0.758808 -1.430651 -7.340029 -0.433354 13.194495 -0.000003 0.000001 -0.000003 -3.532546 4.254366 -63.954572 3.402076 5.315513 -65.218936 1.034633 3.326122 -34.549839 0.000000 0.000000 -0.000005 2.434396 7.296055 -69.364089 3.297857 5.266362 -64.088642 0.787105 2.934914 -30.019569 0.000001 -0.000001 0.000003 4.717034 8.075515 -77.582275 2.056284 4.456880 -49.517663 1.539982 3.959694 -42.490624 0.000002 0.000002 -0.000002 6.410323 8.363716 -80.414563 1.722714 4.149902 -45.074375 0.636279 2.657139 -26.928231 0.000001 0.000001 -0.000001 0.503604 16.988169 12.199521 11.096039 23.104597 38.216674 -0.000151 98.127661 0.000143 -34.579684 -20.304914 21.931618 20.470524 7.475583 18.843590 4.151745 -12.160910 -33.847986 -6.270007 -41.955868 -36.496105 0.000001 -0.000002 0.000001 -0.887102 1.427987 12.684533 1.917410 -3.767444 53.934322 3.057988 -4.374569 69.896789 -0.000001 -0.000001 0.000001 0.770874 -5.199589 54.618820 5.563883 -4.568253 101.238580 4.771463 -4.655767 91.407889 0.000001 -0.000001 0.000000 6.934449 -8.544276 63.908741 2.909305 -4.317399 67.934735 1.862833 -3.727211 53.099438 -0.000000 -0.000000 -0.000000 8.373391 -8.171761 73.989923 2.173672 -3.940976 57.745390 1.042001 -2.937891 39.049875 0.000000 0.000001 -0.000001 -12.518800 11.661604 5.814396 18.262304 4.289947 0.067860 2.581545 0.758481 -5.614333 -0.002016 -0.000003 -0.000000 -0.000000 -0.000000 0.000000 5.877181 -16.658985 -8.490368 22.576437 -2.003580 -1.873229 -20.652484 -13.733276 6.640937 -2.626120 0.000009 -0.000002 0.000000 -0.000001 -0.000000 
